<?xml version="1.0" encoding="UTF-8"?><svg xmlns="http://www.w3.org/2000/svg" viewBox="0 0 608.51 608.51"><defs><style>.d{fill:#ff00d1;}.e{fill:#fcf6eb;}</style></defs><g id="a"/><g id="b"><g id="c"><g><circle class="d" cx="304.26" cy="304.26" r="304.26"/><path class="e" d="M215.08,230.24c-1.77,53.2,15.5,126.14,35.94,151.15,6,7.4,9.16,14.45,9.16,20.45,0,7.4-4.93,12.33-12.33,12.33h-69.77c-7.4,0-11.98-4.93-11.98-12.33,0-5.63,2.82-11.98,9.16-20.08,13.38-17.26,20.8-54.6,20.8-91.96s-6.7-71.53-21.15-89.5c-5.98-7.4-8.81-14.45-8.81-20.45,0-7.4,4.58-12.33,11.98-12.33h57.42c7.05,0,11.28,5.63,16.21,11.98,29.19,40.87,63.61,93.5,105.38,151.18,0-68.18-9.18-104.12-31.38-130.39-6-7.4-9.16-14.45-9.16-20.45,0-7.4,4.93-12.33,12.33-12.33h69.77c7.4,0,12.33,4.93,12.33,12.33,0,5.63-3.17,11.98-9.51,20.08-15.5,19.73-25.36,67.3-25.36,110.99,0,26.43-.43,49.23,14.22,71.46,12.44,18.72,42.71,32.45,62.8,32.45,9.16,0,19.71-.51,19.71-7.91,0-12.45-33.51-8.52-33.51-39.35,0-13.76,20.06-25.26,32.2-25.26,25.73,0,37.27,15.43,37.27,36.92,0,32.06-27.88,73.91-82.1,71.87-40.09,0-65.01-32.18-125.46-107.75-29.83-37.28-38.94-62.55-86.16-113.12"/></g></g></g></svg>